<?xml version="1.0" encoding="UTF-8" standalone="no"?>
<!-- Created with Inkscape (http://www.inkscape.org/) -->

<svg
   width="44.782566mm"
   height="59.527752mm"
   viewBox="0 0 44.782566 59.527752"
   version="1.1"
   id="svg1"
   xml:space="preserve"
   inkscape:version="1.4 (e7c3feb1, 2024-10-09)"
   sodipodi:docname="gitea-pages.svg"
   xmlns:inkscape="http://www.inkscape.org/namespaces/inkscape"
   xmlns:sodipodi="http://sodipodi.sourceforge.net/DTD/sodipodi-0.dtd"
   xmlns="http://www.w3.org/2000/svg"
   xmlns:svg="http://www.w3.org/2000/svg"><sodipodi:namedview
     id="namedview1"
     pagecolor="#ffffff"
     bordercolor="#000000"
     borderopacity="0.25"
     inkscape:showpageshadow="2"
     inkscape:pageopacity="0.0"
     inkscape:pagecheckerboard="0"
     inkscape:deskcolor="#d1d1d1"
     inkscape:document-units="mm"
     inkscape:zoom="0.82733353"
     inkscape:cx="236.90567"
     inkscape:cy="180.70101"
     inkscape:window-width="1504"
     inkscape:window-height="817"
     inkscape:window-x="0"
     inkscape:window-y="38"
     inkscape:window-maximized="0"
     inkscape:current-layer="layer1" /><defs
     id="defs1" /><g
     inkscape:label="Layer 1"
     inkscape:groupmode="layer"
     id="layer1"
     transform="translate(-40.95996,-161.12364)"><g
       id="g3"><path
         style="fill:#000000;stroke-width:0.999998"
         d="m 51.428934,194.44762 c 0,-1.1549 4.48018,-4.72606 6.424,-5.12048 0.92197,-0.18719 3.40086,-0.50034 5.5086,-0.69541 3.07047,-0.28428 4.25896,-0.83274 5.97877,-2.75758 3.41878,-3.82623 2.62567,-8.54976 -1.43552,-8.54976 -1.94487,0 -4.22677,-2.71402 -3.61735,-4.30226 0.66567,-1.73433 3.28452,-2.08465 5.36978,-0.71815 1.90349,1.24718 1.94583,1.23441 1.69802,-0.51434 -0.20731,-1.46316 -0.84586,-1.87271 -3.46602,-2.22243 -3.69205,-0.49247 -5.65984,-1.84235 -5.65984,-3.8816 0,-2.4348 2.71,-3.26929 5.82166,-1.79275 5.6622,2.6869 9.21299,9.30106 10.0962,18.80656 l 0.46798,5.04009 -5.11401,0.96946 c -4.1295,0.78288 -16.53638,4.40014 -21.10482,6.15319 -0.53271,0.20381 -0.96771,0.0175 -0.96771,-0.41375 z m 1.16698,-19.42167 c -0.70591,-1.14257 0.93797,-3.70281 2.74638,-4.2768 0.88033,-0.27904 2.63363,-0.0787 3.8963,0.44261 l 2.29572,0.95092 -3.20281,1.81917 c -3.45868,1.96464 -5.00187,2.25085 -5.73559,1.06375 z m -8.88164,-2.94748 c 0,-1.22925 1.89352,-2.46874 3.7713,-2.46874 h 1.91985 l -1.65612,1.54293 c -1.65638,1.54319 -4.03503,2.08894 -4.03503,0.92581 z m 6.40791,-7.59474 c -0.55983,-1.45983 1.59979,-3.36009 3.81923,-3.36009 2.04136,0 4.25538,1.31691 5.20857,3.09803 0.75839,1.41706 0.67704,1.45782 -1.19663,0.60356 -1.55334,-0.70766 -2.34514,-0.70678 -3.48535,0.006 -2.05824,1.28541 -3.77183,1.14843 -4.34582,-0.34727 z"
         id="path1"
         sodipodi:nodetypes="sssssssssssscscsscsccsccsscssssscsss" /><g
         id="g2"
         transform="matrix(0.06294772,-0.01686679,0.01686679,0.06294772,28.65993,191.79383)"
         style="fill:#000000;stroke-width:4.06">
		<path
   class="st0"
   d="m 822.9,149.5 c -4.8,-4.8 -10.8,-4.4 -10.8,-4.4 0,0 -132.1,7.3 -200.3,8.9 -14.9,0.3 -29.8,0.6 -44.5,0.6 v 132.1 c -6.4,-2.9 -12.4,-6 -18.7,-8.9 V 154.9 c -32.7,0.3 -100.3,-2.5 -100.3,-2.5 0,0 -159.4,-7.9 -176.5,-9.5 -11.1,-0.6 -25.4,-2.2 -43.8,1.6 -9.8,1.9 -37.8,8.3 -60.6,30.2 -50.8,45.1 -37.8,117.2 -36.2,128 1.9,13 7.6,49.8 35.6,81.6 51.4,63.2 162.6,61.6 162.6,61.6 0,0 13.7,32.7 34.6,62.5 28.3,37.1 57.2,66.4 85.1,69.9 h 212.7 c 0,0 13.7,0 31.8,-11.7 15.9,-9.5 29.8,-26.4 29.8,-26.4 0,0 14.6,-15.6 34.9,-51.1 6.4,-10.8 11.4,-21.6 15.9,-31.4 0,0 62.2,-131.8 62.2,-260.4 -1.8,-38.6 -11.3,-45.6 -13.5,-47.8 z M 263.1,379.3 c -29.2,-9.5 -41.6,-21 -41.6,-21 0,0 -21.6,-15.2 -32.4,-44.8 -18.4,-50.2 -1.6,-80.3 -1.6,-80.3 0,0 9.5,-25.4 43.5,-33.7 15.6,-4.1 34.9,-3.5 34.9,-3.5 0,0 7.9,67 17.8,106 8.3,33 27.9,87.6 27.9,87.6 0,0 -29.5,-3.6 -48.5,-10.3 z m 338.1,121 c 0,0 -7,16.2 -22.2,17.5 -6.7,0.3 -11.7,-1.3 -11.7,-1.3 0,0 -0.3,0 -6,-2.2 l -127,-61.9 c 0,0 -12.4,-6.4 -14.3,-17.5 -2.5,-9.2 3.2,-20.3 3.2,-20.3 l 61.3,-126.1 c 0,0 5.4,-10.8 13.7,-14.6 0.6,-0.3 2.5,-1.3 5.1,-1.6 9.2,-2.2 20.3,3.2 20.3,3.2 l 124.8,60.3 c 0,0 14.3,6.4 17.1,18.1 2.2,8.3 -0.6,15.9 -1.9,19.4 -7.4,17.1 -62.4,127 -62.4,127 z"
   id="path1-0"
   sodipodi:nodetypes="scccccccccccccccccccccscccccccccccccccccccccccc"
   style="fill:#000000;stroke-width:4.06" />
		<path
   class="st0"
   d="m 489.8,408.9 c -9.2,0 -17.5,6.7 -19.4,15.6 -2.2,8.9 2.2,18.4 10.2,22.5 8.6,4.4 19.7,1.9 25.7,-6 5.7,-7.9 4.8,-19.1 -1.9,-26 l 27,-55.2 c 1.6,0 4.1,0.3 7,-0.6 4.8,-1 7.9,-4.1 7.9,-4.1 4.8,1.9 9.8,4.1 14.9,7 5.4,2.9 10.5,5.4 15.2,8.3 1,0.6 1.9,1.3 3.2,2.2 1.9,1.6 3.8,3.5 5.4,6.4 2.2,6.4 -2.2,16.8 -2.2,16.8 -2.5,8.6 -20.6,45.7 -20.6,45.7 -9.2,-0.3 -17.1,5.7 -20,14 -2.9,9.2 1.3,19.4 10.2,24.1 8.9,4.7 19.7,1.9 25.4,-6 5.7,-7.6 5.1,-18.4 -1.3,-25.4 2.2,-4.1 4.1,-8.3 6.4,-12.7 5.7,-11.7 15.2,-34.3 15.2,-34.3 1,-1.9 6.4,-11.7 3.2,-24.1 -2.9,-12.7 -14.3,-18.7 -14.3,-18.7 -13.7,-8.9 -33,-17.1 -33,-17.1 0,0 0,-4.8 -1.3,-7.9 -1.3,-3.5 -3.2,-5.7 -4.4,-7 5.4,-10.8 10.5,-21.6 15.9,-32.7 -4.8,-2.2 -9.2,-4.4 -13.7,-7 -5.4,11.1 -10.8,22.2 -16.2,33.3 -7.6,0 -14.6,3.8 -18.1,10.5 -3.8,7 -3.2,15.9 2.2,22.2 z"
   id="path2-3"
   style="fill:#000000;stroke-width:4.06" />
	</g></g></g></svg>
